<svg width="108" height="57" fill="none" xmlns="http://www.w3.org/2000/svg"><path d="M85.192 56.103h-4.485v-14.94h-1.723v-2.971c.655 0 1.206-.28 1.652-.839.456-.559.683-1.104.683-1.635h3.873v20.385zm.925-3.483V39.5c0-2.644 1.76-3.966 5.282-3.966 3.455 0 5.183 1.312 5.183 3.937v13.12c0 1.176-.49 2.086-1.467 2.73-.968.645-2.216.967-3.744.967-1.576 0-2.848-.318-3.816-.953-.959-.635-1.438-1.54-1.438-2.715zm5.98.214V38.945c0-.407-.242-.611-.726-.611-.513 0-.77.204-.77.611v13.889c0 .407.257.61.77.61.484 0 .726-.203.726-.61zm5.353-.214V39.5c0-2.644 1.76-3.966 5.282-3.966 3.455 0 5.182 1.312 5.182 3.937v13.12c0 1.176-.488 2.086-1.466 2.73-.968.645-2.216.967-3.744.967-1.576 0-2.848-.318-3.816-.953-.959-.635-1.438-1.54-1.438-2.715zm5.98.214V38.945c0-.407-.242-.611-.726-.611-.513 0-.769.204-.769.611v13.889c0 .407.256.61.769.61.484 0 .726-.203.726-.61z" fill="#FBA500"/><path d="M24.441 30.836h-5.988V13.681l-3.495 17.155h-4.624L6.327 13.681v17.155H1.085V.277h8.63l3.07 15.855L15.447.277h8.993v30.56zm19.649 0h-6.65l-1.129-8.204h-3.004l-1.13 8.204h-6.649L30.558.277h8.502l5.03 30.56zm-8.333-12.445l-.959-9.12-.916 9.12h1.875zm9.398.213h6.116v7.011c0 .697.42 1.045 1.258 1.045.81 0 1.214-.349 1.214-1.045v-3.622c0-1.109-.738-2.409-2.216-3.9-2.855-2.77-4.631-4.632-5.328-5.584-.696-.952-1.044-1.996-1.044-3.132V5.946C45.155 1.982 47.741 0 52.912 0c4.632 0 6.948 1.804 6.948 5.413v5.285h-6.117V5.072c0-.611-.333-.916-1.001-.916-.782 0-1.172.59-1.172 1.768l.128 1.982c0 1.137.753 2.458 2.258 3.964 2.8 2.685 4.575 4.56 5.328 5.626.767 1.066 1.151 2.273 1.151 3.623v3.9c0 4.063-2.593 6.095-7.778 6.095-5.001 0-7.502-1.848-7.502-5.541v-6.969zm30.73-14.342h-3.75v26.574h-6.713V4.262H61.67V.277h14.214v3.985zm14.427 26.574H77.185V.277h13.042v3.942h-6.33v8.248h5.712v3.708h-5.711v10.74h6.414v3.921zm17.688.043h-6.713c-.724-.867-1.086-3.324-1.086-7.373v-.043l.042-1.833c.043-2.543.064-3.843.064-3.9 0-1.037-.696-1.555-2.088-1.555v14.661h-6.713V.277h8.29c1.889 0 3.53.433 4.922 1.3 1.407.867 2.11 2.238 2.11 4.113v3.665c0 2.373-1.385 3.978-4.155 4.816 2.784.654 4.176 2.338 4.176 5.051l-.106 3.346c0 4.887.419 7.657 1.257 8.311zm-7.693-20.032v-5.03c0-1.065-.696-1.598-2.088-1.598v8.248c1.392 0 2.088-.54 2.088-1.62zM9.191 55.56h-2.1v-6.068l-1.226 6.069H4.244l-1.405-6.069v6.069H1V44.75h3.027l1.076 5.608.934-5.608h3.154v10.81zm6.891 0H13.75l-.396-2.901H12.3l-.396 2.902H9.572l1.764-10.81h2.982l1.764 10.81zm-2.922-4.402l-.337-3.226-.32 3.226h.657zm8.453-2.63h-2.145v-2.141c0-.176-.108-.264-.322-.264-.224 0-.336.088-.336.264v7.5c0 .176.112.264.336.264.214 0 .322-.088.322-.264V51.22h2.145v2.744c0 .512-.25.924-.748 1.236a3.158 3.158 0 01-1.689.46c-1.813 0-2.72-.648-2.72-1.945v-6.958c0-1.402.907-2.103 2.72-2.103 1.624 0 2.437.638 2.437 1.915v1.96zm5.425-2.368h-1.315v9.4H23.37v-9.4h-1.316v-1.41h4.985v1.41zm5.06 9.4h-4.604V44.75h4.574v1.395h-2.22v2.918h2.004v1.311h-2.003v3.8h2.25v1.387zm2.683-3.98v3.98h-2.294V44.75h2.474c.981 0 1.709.127 2.182.378.478.251.718.764.718 1.538v3c0 .708-.195 1.211-.583 1.508-.39.291-1.221.427-2.497.407zm.785-2.118V46.87c0-.382-.262-.573-.785-.573v3.74c.523 0 .785-.192.785-.574zM46.35 55.56h-2.354v-5.186h-.657v5.187h-2.355V44.75h2.355v4.312h.657V44.75h2.355v10.81zm6.847 0h-2.332l-.396-2.901h-1.054l-.396 2.902h-2.332l1.764-10.81h2.982l1.764 10.81zm-2.923-4.402l-.336-3.226-.321 3.226h.657zm6.024 4.402V44.75h2.773c.663 0 1.238.154 1.726.46.489.302.733.787.733 1.456v1.5c0 .759-.459 1.294-1.375 1.605.966.242 1.45.762 1.45 1.56v2.096c0 .714-.232 1.25-.695 1.606-.459.352-1.007.528-1.645.528h-2.967zm3.012-7.01v-1.84c0-.376-.22-.565-.658-.565v2.978c.439 0 .658-.19.658-.573zm0 5.05v-2.736c0-.377-.22-.565-.658-.565v3.875c.439 0 .658-.191.658-.573zm7.952-5.072h-2.145v-2.141c0-.176-.107-.264-.321-.264-.224 0-.337.088-.337.264v7.5c0 .176.113.264.337.264.214 0 .321-.088.321-.264V51.22h2.145v2.744c0 .512-.249.924-.747 1.236a3.158 3.158 0 01-1.69.46c-1.813 0-2.72-.648-2.72-1.945v-6.958c0-1.402.907-2.103 2.72-2.103 1.625 0 2.437.638 2.437 1.915v1.96zm5.12 7.032h-4.604V44.75h4.574v1.395h-2.22v2.918h2.003v1.311h-2.003v3.8h2.25v1.387z" fill="#fff"/><path stroke="#FBA500" stroke-width="3" d="M.994 37.178l71.381-.301"/></svg>