<svg width="96" height="97" fill="none" xmlns="http://www.w3.org/2000/svg"><path d="M23.277 58.3a21.289 21.289 0 01-.8 7.78 4.66 4.66 0 006.57 5.5c4.63-2.28 10.77-6.35 14.52-12.58h3.05a29.5 29.5 0 100-59h-17.15a29.48 29.48 0 00-6.19 58.3zm6.19-53.25h17.18a24.5 24.5 0 110 49h-4.51a2.5 2.5 0 00-2.21 1.25c-2.9 5.52-8.24 9.24-12.46 11.47a26.81 26.81 0 00.54-11 2.5 2.5 0 00-2.11-2.1 24.48 24.48 0 013.57-48.62zm65.68 59.8a22.27 22.27 0 01-17 21.53 14.74 14.74 0 00.6 4.92 4.07 4.07 0 01-5.74 4.8c-3.37-1.71-7.82-4.63-10.67-9.12h-1.84a22.14 22.14 0 01-20.32-13.31 2.504 2.504 0 014.59-2 17.14 17.14 0 0015.73 10.32h3.28a2.5 2.5 0 012.21 1.31 19.59 19.59 0 007.47 7.33 20.502 20.502 0 01-.07-6.75 2.5 2.5 0 012.11-2.1 17.14 17.14 0 003.82-32.9 2.5 2.5 0 011.84-4.58 22 22 0 0113.99 20.55zm-69.85-36.43a2.5 2.5 0 013.41-.92 21.36 21.36 0 015.73 4.8 59.34 59.34 0 0112.78-12 2.504 2.504 0 112.86 4.11 54.35 54.35 0 00-13.64 13.6 2.5 2.5 0 01-2.05 1.07h-.11a2.5 2.5 0 01-2.06-1.25 16.35 16.35 0 00-6-6 2.5 2.5 0 01-.92-3.41z" fill="#255D7D"/></svg>