<svg width="105" height="109" fill="none" xmlns="http://www.w3.org/2000/svg"><path d="M0 106.764c0 .593.238 1.162.663 1.581.424.419 1 .655 1.6.655h100.474c.6 0 1.176-.236 1.6-.655a2.22 2.22 0 00.663-1.581c0-31.113-27.568-40.247-34.72-42.125l-1.246-11.314a23.332 23.332 0 003.27-7.468c1.925-1.308 3.056-4.37 3.905-7.367 1.245-4.349 1.132-7.189-.305-8.944a4.093 4.093 0 00-.94-.827c.068-.28.125-.559.193-.872 1.347-7.982.566-13.852-2.264-17.451a8.736 8.736 0 00-4.266-2.985 16.284 16.284 0 00-5.523-4.763A20.052 20.052 0 0051.04.11c-1.672.082-3.325.39-4.911.917a21.08 21.08 0 00-5.218 2.616 26.845 26.845 0 00-5.262 4.293 21.182 21.182 0 00-5.829 10.062 21.598 21.598 0 000 9.849c.053.283.11.563.17.838a4.15 4.15 0 00-.894.794c-1.471 1.733-1.573 4.584-.317 8.944.793 2.828 1.924 6.003 3.882 7.356a23.74 23.74 0 003.305 7.658l-1.245 11.18C27.602 66.484 0 75.64 0 106.764zm46.92-44.428a16.577 16.577 0 0011.08 0 20.897 20.897 0 006.949-4.293l.883 8.05-6.36 14.287-1.766-3.946 2.331-5.154c.205-.453.251-.96.133-1.441a2.233 2.233 0 00-.79-1.22l-5.477-4.27a2.281 2.281 0 00-2.818 0L45.62 68.63c-.39.309-.666.736-.784 1.215-.12.479-.074.984.128 1.435l2.32 5.142-1.766 3.936-6.394-14.266.928-7.892a20.517 20.517 0 006.87 4.136zm4.912 13.192l-2.014-4.472 2.682-2.102 2.682 2.102-2.014 4.472a2.212 2.212 0 000 1.811l3.859 8.564-.351.794a4.487 4.487 0 01-1.67 1.933 4.567 4.567 0 01-4.933 0 4.487 4.487 0 01-1.67-1.933l-.43-.817 3.837-8.54a2.215 2.215 0 00.022-1.823v.011zm48.585 29H4.583C5.84 78.412 28.87 70.71 35.524 69.044l8.703 19.453a8.86 8.86 0 003.326 3.89 9.02 9.02 0 004.947 1.431 9.02 9.02 0 004.947-1.43 8.86 8.86 0 003.326-3.892l8.703-19.452c6.575 1.733 29.673 9.67 30.941 35.484zm-67.27-67.257c-.905-3.163-.712-4.404-.599-4.773h.068c.381.035.766-.026 1.117-.178a2.26 2.26 0 00.89-.69 2.221 2.221 0 00.324-2.14 13.424 13.424 0 01-.656-2.426 17.278 17.278 0 01-.068-7.97 16.969 16.969 0 014.697-8.072 22.662 22.662 0 014.526-3.645 16.872 16.872 0 014.165-2.113 14.13 14.13 0 013.757-.693 15.765 15.765 0 019.484 1.979c1.761.9 3.255 2.237 4.334 3.88a2.156 2.156 0 001.789 1.195c1.005.23 1.88.835 2.444 1.688 1.347 1.8 2.67 5.657 1.313 13.74a17.704 17.704 0 01-.68 2.482 2.21 2.21 0 00.32 2.093 2.27 2.27 0 001.944.892h.09c.114.347.318 1.576-.599 4.763-.996 3.51-1.788 4.56-2.037 4.818a2.27 2.27 0 00-1.16.656c-.311.33-.514.744-.583 1.189-.803 5.142-5.138 11.861-11.6 14.164-2.593.922-5.43.922-8.024 0-6.484-2.236-10.706-8.843-11.532-14.187a2.225 2.225 0 00-.583-1.188 2.27 2.27 0 00-1.16-.656c-.215-.258-.996-1.308-1.98-4.808z" fill="#255D7D"/></svg>