<svg width="89" height="118" fill="none" xmlns="http://www.w3.org/2000/svg"><path d="M89 115.64v-14.078c0-16.483-13.215-29.918-29.648-30.44-.064-.006-.119-.037-.184-.037-.039 0-.071.02-.11.022l-.031-.002c6.293-4.51 10.413-11.847 10.413-20.138v-4.094h3.566c3.75 0 6.802-3.038 6.802-6.771 0-3.734-3.052-6.772-6.802-6.772h-.198c-.89-10.894-7.903-20.187-18.17-24.058l.753-6.648a2.353 2.353 0 00-.588-1.837A2.377 2.377 0 0053.035 0H35.964c-.675 0-1.319.287-1.768.787a2.353 2.353 0 00-.588 1.837l.753 6.652C24.088 13.15 17.073 22.438 16.183 33.33h-.189c-3.75 0-6.802 3.038-6.802 6.772 0 3.733 3.051 6.77 6.802 6.77h3.566v4.095c0 8.291 4.12 15.627 10.412 20.138l-.032.002c-.038-.002-.07-.022-.11-.022-.064 0-.119.031-.183.037C13.215 71.644 0 85.078 0 101.561v14.078A2.366 2.366 0 002.37 118h84.26a2.365 2.365 0 002.371-2.36zM32.202 94.273V75.792h24.595v18.481H32.202zm2.714-80.093l.936 8.268a2.368 2.368 0 002.62 2.08 2.362 2.362 0 002.091-2.608l-1.946-17.2h11.765l-1.947 17.2a2.362 2.362 0 002.36 2.624c1.19 0 2.216-.891 2.352-2.096l.936-8.273c7.802 3.412 13.13 10.66 13.964 19.155H20.943c.836-8.494 6.167-15.739 13.973-19.15zM13.934 40.102c0-1.132.925-2.052 2.06-2.052h57.012c1.135 0 2.06.92 2.06 2.052a2.058 2.058 0 01-2.06 2.05H15.994a2.058 2.058 0 01-2.06-2.05zm10.368 10.865v-4.094h40.396v4.094c0 11.086-9.06 20.105-20.199 20.105-11.136 0-20.197-9.02-20.197-20.105zm-19.56 50.595c0-13.14 9.936-23.993 22.718-25.557v18.268h-4.463a2.366 2.366 0 00-2.37 2.36v16.647H4.741v-11.718zm20.626 11.718V98.993H63.63v14.287H25.368zm58.89 0H68.373V96.633a2.366 2.366 0 00-2.371-2.36h-4.463V76.005c12.782 1.564 22.72 12.418 22.72 25.557v11.718z" fill="#255D7D"/></svg>