<svg width="22" height="22" fill="none" xmlns="http://www.w3.org/2000/svg"><path fill-rule="evenodd" clip-rule="evenodd" d="M5.281 10.825a5.551 5.551 0 015.544-5.544 5.551 5.551 0 015.543 5.544 5.551 5.551 0 01-5.543 5.543 5.551 5.551 0 01-5.544-5.543zM16.543 0H5.107C2.313 0 0 2.313 0 5.107v11.436c0 2.793 2.313 5.107 5.107 5.107h11.436c2.837 0 5.107-2.314 5.107-5.107V5.107C21.65 2.313 19.38 0 16.543 0zm1.135 2.88c-.611 0-1.135.525-1.135 1.136 0 .61.524 1.135 1.135 1.135.61 0 1.134-.524 1.134-1.135S18.29 2.88 17.678 2.88z" fill="#fff"/></svg>