<svg width="26" height="21" fill="none" xmlns="http://www.w3.org/2000/svg"><path fill-rule="evenodd" clip-rule="evenodd" d="M25.735 4.797s-.257-1.899-1.027-2.743C23.732.947 22.602.947 22.139.894 18.492.63 13.047.63 13.047.63h-.051S7.55.63 3.904.894C3.39.947 2.26 1 1.284 2.054.514 2.898.257 4.797.257 4.797S0 7.064 0 9.279v2.111c0 2.268.257 4.483.257 4.483s.257 1.898 1.027 2.795c.976 1.107 2.26 1.055 2.877 1.16 2.054.211 8.835.264 8.835.264s5.445-.053 9.092-.264c.514-.053 1.592-.053 2.568-1.16.77-.844 1.028-2.795 1.028-2.795s.256-2.215.256-4.483V9.227c.052-2.163-.205-4.43-.205-4.43zm-8.373 5.273l-7.037 3.903V6.115l3.185 1.793 3.852 2.162z" fill="#fff"/></svg>