<svg width="29" height="28" fill="none" xmlns="http://www.w3.org/2000/svg"><path fill-rule="evenodd" clip-rule="evenodd" d="M7.394 13.655c0-3.854 3.139-6.993 6.993-6.993 3.855 0 6.993 3.139 6.993 6.993 0 3.855-3.138 6.993-6.993 6.993-3.854 0-6.993-3.138-6.993-6.993zM21.6 0H7.174C3.65 0 .732 2.918.732 6.442V20.87c0 3.523 2.918 6.442 6.442 6.442H21.6c3.58 0 6.443-2.919 6.443-6.442V6.442C28.043 2.918 25.179 0 21.6 0zm1.432 3.634c-.77 0-1.432.66-1.432 1.432 0 .77.661 1.431 1.432 1.431.77 0 1.432-.66 1.432-1.431s-.661-1.432-1.432-1.432z" fill="#fff"/></svg>