<svg width="67" height="35" fill="none" xmlns="http://www.w3.org/2000/svg"><path d="M52.93 34.605h-2.766V25.39h-1.062v-1.833c.404 0 .743-.172 1.018-.517.281-.345.422-.681.422-1.008h2.388v12.573zm.571-2.148v-8.093c0-1.63 1.086-2.446 3.258-2.446 2.131 0 3.197.81 3.197 2.428v8.093c0 .725-.302 1.286-.905 1.684-.597.397-1.367.596-2.31.596-.971 0-1.756-.196-2.353-.587-.591-.392-.887-.95-.887-1.675zm3.689.132v-8.567c0-.251-.15-.377-.448-.377-.316 0-.475.126-.475.377v8.567c0 .25.158.377.475.377.298 0 .448-.126.448-.377zm3.302-.132v-8.093c0-1.63 1.086-2.446 3.258-2.446 2.13 0 3.196.81 3.196 2.428v8.093c0 .725-.302 1.286-.904 1.684-.598.397-1.368.596-2.31.596-.972 0-1.756-.196-2.354-.587-.59-.392-.886-.95-.886-1.675zm3.688.132v-8.567c0-.251-.15-.377-.448-.377-.316 0-.474.126-.474.377v8.567c0 .25.158.377.474.377.299 0 .448-.126.448-.377z" fill="#FBA500"/><path d="M15.46 19.02h-3.694V8.44L9.61 19.02H6.758L4.286 8.44v10.58H1.053V.17h5.323L8.27 9.95 9.912.17h5.547v18.85zm12.119 0h-4.101l-.697-5.06h-1.854l-.696 5.06H16.13L19.232.17h5.245l3.102 18.85zm-5.14-7.676l-.591-5.626-.566 5.626h1.157zm5.797.131h3.772V15.8c0 .43.259.644.776.644.5 0 .75-.215.75-.644v-2.235c0-.683-.456-1.485-1.368-2.405-1.761-1.709-2.857-2.857-3.286-3.444a3.201 3.201 0 01-.644-1.932V3.667C28.236 1.222 29.831 0 33.021 0c2.856 0 4.285 1.113 4.285 3.339v3.26h-3.773v-3.47c0-.377-.206-.566-.617-.566-.482 0-.723.364-.723 1.091l.078 1.223c0 .7.465 1.516 1.394 2.445 1.726 1.656 2.821 2.813 3.286 3.47a3.73 3.73 0 01.71 2.234v2.406c0 2.506-1.6 3.76-4.798 3.76-3.085 0-4.627-1.14-4.627-3.418v-4.299zM47.19 2.629h-2.313V19.02h-4.14V2.63h-2.314V.171h8.768v2.458zm8.9 16.391h-8.098V.17h8.045v2.433h-3.904V7.69h3.523v2.287h-3.523v6.625h3.956v2.418zm10.91.027h-4.14c-.448-.535-.671-2.05-.671-4.548v-.027l.026-1.13.04-2.406c0-.64-.43-.96-1.289-.96v9.044h-4.14V.17h5.113c1.165 0 2.178.268 3.036.803.868.534 1.302 1.38 1.302 2.537v2.26c0 1.464-.855 2.454-2.563 2.971 1.717.403 2.576 1.442 2.576 3.116l-.066 2.063c0 3.015.259 4.724.776 5.127zM62.254 6.69V3.589c0-.658-.429-.986-1.288-.986V7.69c.859 0 1.288-.333 1.288-1zM6.052 34.27H4.757v-3.742l-.756 3.743h-1l-.867-3.743v3.743H1v-6.668h1.867l.664 3.46.576-3.46h1.945v6.668zm4.251 0H8.865l-.245-1.79h-.65l-.244 1.79H6.288l1.087-6.667h1.84l1.088 6.668zM8.5 31.556l-.207-1.99-.198 1.99H8.5zm5.214-1.623h-1.323v-1.321c0-.108-.066-.163-.198-.163-.138 0-.208.054-.208.163v4.627c0 .108.07.162.208.162.132 0 .198-.054.198-.163v-1.645h1.323v1.692c0 .316-.154.57-.46.763a1.948 1.948 0 01-1.043.283c-1.118 0-1.678-.4-1.678-1.2V28.84c0-.865.56-1.297 1.678-1.297 1.002 0 1.503.393 1.503 1.18v1.21zm3.346-1.46h-.81v5.798h-1.453v-5.799h-.81v-.869h3.074v.87zm3.122 5.797h-2.84v-6.667h2.821v.86h-1.369v1.8h1.236v.809h-1.236v2.343h1.388v.856zm1.655-2.454v2.455h-1.415v-6.668h1.525c.606 0 1.055.077 1.347.232.295.155.442.472.442.949v1.85c0 .438-.12.748-.36.93-.24.18-.752.264-1.54.252zm.484-1.307v-1.6c0-.235-.162-.353-.484-.353v2.306c.323 0 .484-.117.484-.353zm6.652 3.761H27.52v-3.198h-.406v3.199h-1.452v-6.668h1.452v2.66h.406v-2.66h1.452v6.668zm4.223 0h-1.439l-.244-1.79h-.65l-.244 1.79H29.18l1.088-6.667h1.84l1.088 6.668zm-1.803-2.715l-.207-1.99-.198 1.99h.405zm3.716 2.715v-6.667h1.71c.409 0 .764.095 1.065.284.301.186.452.485.452.897v.925c0 .468-.283.799-.849.99.597.15.895.47.895.963v1.293c0 .44-.143.77-.429.99-.283.217-.62.326-1.014.326h-1.83zm1.858-4.324v-1.134c0-.233-.136-.349-.406-.349V30.3c.27 0 .406-.118.406-.354zm0 3.116v-1.688c0-.232-.136-.349-.406-.349v2.39c.27 0 .406-.118.406-.353zm4.904-3.129h-1.323v-1.321c0-.108-.066-.163-.198-.163-.138 0-.207.054-.207.163v4.627c0 .108.069.162.207.162.132 0 .198-.054.198-.163v-1.645h1.323v1.692c0 .316-.153.57-.46.763a1.949 1.949 0 01-1.042.283c-1.119 0-1.678-.4-1.678-1.2V28.84c0-.865.559-1.297 1.678-1.297 1.002 0 1.502.393 1.502 1.18v1.21zm3.159 4.337h-2.84v-6.667h2.82v.86h-1.368v1.8h1.235v.809h-1.235v2.343h1.387v.856z" fill="#fff"/><path stroke="#FBA500" stroke-width="3" d="M.994 22.357l44.029-.185"/></svg>