<svg width="33" height="25" fill="none" xmlns="http://www.w3.org/2000/svg"><path fill-rule="evenodd" clip-rule="evenodd" d="M32.464 5.312s-.324-2.395-1.296-3.46C29.938.457 28.512.457 27.928.39 23.328.057 16.46.057 16.46.057h-.065s-6.869 0-11.47.332C4.278.456 2.852.522 1.62 1.853.648 2.917.324 5.313.324 5.313S0 8.172 0 10.966v2.664c0 2.86.324 5.654.324 5.654s.324 2.395 1.296 3.526c1.231 1.397 2.851 1.331 3.629 1.464 2.592.266 11.145.333 11.145.333s6.869-.067 11.47-.333c.648-.067 2.008-.067 3.24-1.464.971-1.064 1.296-3.526 1.296-3.526s.324-2.794.324-5.655v-2.727c.064-2.728-.26-5.589-.26-5.589zm-10.562 6.653l-8.877 4.923V6.976l4.017 2.262 4.86 2.727z" fill="#fff"/></svg>